<svg id="Layer_1" data-name="Layer 1" xmlns="http://www.w3.org/2000/svg" xmlns:xlink="http://www.w3.org/1999/xlink" viewBox="0 0 387.87 93.69"><defs><clipPath id="clip-path" transform="translate(-18 -20)"><rect x="18" y="20" width="93" height="93" fill="none"/></clipPath></defs><path d="M110.13,66.5A45.63,45.63,0,1,1,64.5,20.87,45.63,45.63,0,0,1,110.13,66.5Z" transform="translate(-18 -20)" fill="#fff"/><g clip-path="url(#clip-path)"><path d="M110.13,66.5A45.63,45.63,0,1,1,64.5,20.87,45.63,45.63,0,0,1,110.13,66.5Z" transform="translate(-18 -20)" fill="none" stroke="#a28f5d" stroke-miterlimit="10" stroke-width="1.74"/></g><path d="M93.05,67.24c-.69.93-.5.34-.56.12a2.88,2.88,0,0,1,.1-1.54,1.32,1.32,0,0,0,0-.9c-.26,0-.36.27-.42.46a3.78,3.78,0,0,0-.1.59c0,.09-.22.76-.42.69s-.41-.49-.41-1.17a2.65,2.65,0,0,1,.35-1.42,3.13,3.13,0,0,0,.48-1.35c0-.1.18-1.08.73-.56a4.63,4.63,0,0,1,.76,2.26,5,5,0,0,1-.56,2.82Zm.28,2.5a7.42,7.42,0,0,1-.51,1.64c-.2.37-.39.71-.49.66s.1-.5.14-1.26.06-.88-.09-.85c0,0-.53.43-.58.66s-.18.58-.43.42-.2-.65-.05-1.23A1.29,1.29,0,0,1,92.1,69a5.07,5.07,0,0,1,1.21-.54,2.71,2.71,0,0,1,0,1.31ZM91,78.45a2,2,0,0,1-.6,1.1,5.1,5.1,0,0,0-.84,1.21c0,.22-.27.12-.06-1s.47-1.56.51-1.85c0,0-1.41,1.87-1.48,2.12s-.18,0-.12-.64a6,6,0,0,1,1.09-2.63,21.32,21.32,0,0,1,1.65-1.58A12.85,12.85,0,0,1,91,78.45Zm-2.45,4.13c-.16.25-1.38,1.91-1.57,2.1s-1,1.24-1.58,1.39-.73.21-.77-.09.64-.75.67-.76a9.29,9.29,0,0,0,1.1-1.09L85.2,85a1,1,0,0,1-.64.07c-.14-.07-.27-.26,0-.6a4.32,4.32,0,0,1,1.56-1.55,8,8,0,0,1,2.13-.57c.23,0,.47,0,.31.26Zm-5.38,6.16a4.75,4.75,0,0,1-2.43.22l.43-.21s.93-.83,1-1.16l-1.08-.18a2.7,2.7,0,0,1,1.45-.73,2.14,2.14,0,0,1,2,.61c.08.24-.82,1.3-1.37,1.45Zm-2.61,2.35c-1,.79-1.84.68-2.21.37-.21-.18.34,0,.83-.46.22-.2.29-.3.28-.46a2.12,2.12,0,0,0-.7,0c-.3.06-.6.16-.25-.25A2.72,2.72,0,0,1,80,89.68a6.16,6.16,0,0,1,1.23-.05,1.76,1.76,0,0,1-.7,1.46Zm-2.91-6.58a.62.62,0,0,1-.92.27.86.86,0,0,1,.21-.84,1.46,1.46,0,0,1,1-.37,1.84,1.84,0,0,1-.27.94Zm-.43,3.43c0,.09-1.42,2.4-2.25,2.65s-.55-.28-.53-.45.35-.6.44-.77S76,88,76,88l-1.63.63s-.89.8-.89.58A14.61,14.61,0,0,1,75.11,87a11.13,11.13,0,0,1,2.79-1.77c.22.4-.65,2.62-.67,2.7Zm.36,4.26c-.09.26-.55.62-1.25,1s-2.08.22-2.94.23a3.52,3.52,0,0,1-2.11-.87s.82.11,2,.15,1.33-.22,1.33-.22-.17-.26-1-.45a5.47,5.47,0,0,1-1.61-.53,11.21,11.21,0,0,1,2.69-.07,6,6,0,0,1,2.21.57c.42.2.85-.09.75.17Zm-4.75,2.35A3.62,3.62,0,0,1,71,94.34c-.28-.25-.34-.39-.29-.56s0-.3.61-.41a.82.82,0,0,1,.89.41.88.88,0,0,0,.72.28,4,4,0,0,1,.79.06,1.06,1.06,0,0,1-.83.43ZM68.63,91.4c-.06-.05.41-.33.41-.33l1.3-.94.54-.53s.32-.27.22-.29a8.42,8.42,0,0,0-1.15.06c-.1,0-.69.31-.69.31s-.31.08-.2-.2a8.32,8.32,0,0,1,2-1.71,6.64,6.64,0,0,1,2.17-.49,2.17,2.17,0,0,1-.72,2c-1,.91-3.46,2.45-3.88,2.09Zm.09,3.5a2.94,2.94,0,0,1-1.25-1.17c.23-.49,1.35-.25,1.73.1a3,3,0,0,1,.59,1.22,2.11,2.11,0,0,1-1.07-.15Zm-2.45-2.76c.36-.17.53-.9.55-1s0-.36-.08-.38A3.38,3.38,0,0,0,66,91a2.81,2.81,0,0,1,.35-.91,1.39,1.39,0,0,1,1.52-.54c.28.14.29.59.26,1a2.37,2.37,0,0,1-.83,1.4c-.44.34-1.41.4-1,.22Zm.61,3.8a1.08,1.08,0,0,1-1-.28,2.2,2.2,0,0,1-.45-1.38c.35,0,.49.5.69.56a2.08,2.08,0,0,0,.47,0s.34.21.37.39a1.33,1.33,0,0,1-.06.69Zm8-11.43a3,3,0,0,1,.86-.5,3.7,3.7,0,0,1-.23.94c-.14.22-.79.72-.93.57s.1-.77.3-1Zm4.48.9c.16-.83.23-1.67.23-1.67l-.44.49c-.1.1,0-.67,0-.87a4.54,4.54,0,0,1,.66-1.16.67.67,0,0,1,.7-.23c.17.07.33.52-.06,2.54a3.73,3.73,0,0,1-1.69,2.67,9.56,9.56,0,0,0,.55-1.77Zm3.29-3.57a2.7,2.7,0,0,1,1.9-.73c.23.1.27,1.22-.2,2.08-1,1.75-2.1,1.47-2.1,1.47l.95-2.06-1.4.84a2.33,2.33,0,0,1,.85-1.6ZM82.54,78c.12-.87.36-1.12.48-1.18s.42-.27.62.16a7,7,0,0,1,.53,1.35,8.94,8.94,0,0,1,.12,2c-.1.26-.3-.07-.3-.07a1.09,1.09,0,0,1-.42-.68c-.11-.5,0-.68-.15-.78s-.43.25-.5.61a5.71,5.71,0,0,1-.24.83A9.28,9.28,0,0,1,82.54,78Zm2.2-3.13a18.75,18.75,0,0,1,.94-2,3.34,3.34,0,0,0,.54-1.07c0-.16.79.43.9,1a7.66,7.66,0,0,1,.28,2,1.93,1.93,0,0,1-.29,1c-.07.1-.46.22-.57.11a.86.86,0,0,1-.16-.69,6.66,6.66,0,0,0,.1-1.34c-.06-.2-.14-.3-.26-.3s-.51,1.5-.54,1.79a8.49,8.49,0,0,0-.16,1.22,1.61,1.61,0,0,1-.64,1.14c-.07,0-.37-.2-.37-.84a5.59,5.59,0,0,1,.23-2Zm1.17-14.68c-.23-1.43-.4-2.39-.19-2.47a1.84,1.84,0,0,1,1,.2,3,3,0,0,1,.85,1.61,7.62,7.62,0,0,1,.16,1.75,5.27,5.27,0,0,0-.69-.86s0,.7.09,1.17a3.54,3.54,0,0,1,0,1.19,5.37,5.37,0,0,1-1.15-2.59Zm-.42-6.75c.18-.19.89.51.89.51a3.43,3.43,0,0,1,.88,1.37c.22.78.33,1,.21,1.11s-.46-.41-.59-.5-.73-.64-.55-.14a3.85,3.85,0,0,1,.23.69,3.66,3.66,0,0,1,0,1.05c0,.17-.11.17-.21-.21s-.16-.15-.16-.15a2.31,2.31,0,0,1-.83-1.46,4,4,0,0,1,.13-2.27Zm-.87-6.26c-.19-.16-.8-.81-.8-.81a3.13,3.13,0,0,0,.06.55s.6.88.26.85-.62-.43-.94-1.07a2.08,2.08,0,0,1-.07-1.39c0-.1.33-.13.61,0a6.68,6.68,0,0,1,1.47,1.75c.19.44-.4.28-.59.12Zm-1.14,2.4c-.49-.43.68,1.2.89,1.31s.09.52.08.56a3.25,3.25,0,0,1-1.29-.88,5.41,5.41,0,0,1-.74-1,1.34,1.34,0,0,1-.13-1,.91.91,0,0,1,.88-.08,2,2,0,0,1,.84.62,1.66,1.66,0,0,0,.7.69,1.33,1.33,0,0,1-1.23-.23Zm2.23.12c.1-.75.11-.8.23-.85s.91.63,1,.81a4.65,4.65,0,0,1,.53,1.53c0,.55,0,.85-.09.86s-.06-.14-.23-.66a1.4,1.4,0,0,0-.54-.71,2.36,2.36,0,0,1-.09.8c-.12.31-.3.34-.54-.19a2.5,2.5,0,0,1-.26-1.59Zm1.07,28.64-1.21,1.06s-.15-.15,0-.63a2.73,2.73,0,0,1,.51-.88,7.88,7.88,0,0,0,.89-.75,4.41,4.41,0,0,0,.75-.9,8.6,8.6,0,0,1,.21,1.54,5.68,5.68,0,0,1-.21,1.55A14.81,14.81,0,0,0,86.59,81c-.15.35-.71,1.15-.84,1.54s-.22.36-.38-.3a1.88,1.88,0,0,1,.2-1.29,15.45,15.45,0,0,1,1-1.36c.29-.34.21-1.25.21-1.25Zm1.56-8.68a2.7,2.7,0,0,1-.15,1.25,5.14,5.14,0,0,1-.36-.86c-.22-.63-.42-.77-.43-.51a2.22,2.22,0,0,1-.14.88c-.17.28-.17.69-.25.72s-.38-.42-.48-1a3.43,3.43,0,0,1,.15-1.68c.15-.3.37-.84.55-.94s.52.37.62.56a2.46,2.46,0,0,1,.49,1.6ZM88,58.63a1.94,1.94,0,0,1,.5-1.16,1.5,1.5,0,0,1,.94.68,2.7,2.7,0,0,1,.37,1.53,2.77,2.77,0,0,1-.14,1.13s-.13,0-.24-.75a2.8,2.8,0,0,0-.68-1.32,9.23,9.23,0,0,1-.34,1.11c-.12.22-.49-.57-.41-1.22Zm.47-4.41a4.44,4.44,0,0,1,.43-1.68c.2-.26.91.9.91.9a4.35,4.35,0,0,1,.84,1.93,11.08,11.08,0,0,1,.16,2.75c-.14.41-.37.6-.7.12s-.25-1.57-.46-2.17a6.88,6.88,0,0,0-.57-1.59,3.67,3.67,0,0,1-.18,1.07c-.18.52-.45.54-.45.54s0-1.48,0-1.87Zm1.89,13.3-.27-2.79s-.13-.71-.32,0a30.83,30.83,0,0,1-.72,3.6,11,11,0,0,1-.23-2.47,10.11,10.11,0,0,1,.47-2.89c.32-.69.15-.64.4-.91s.9.67,1,.9a5.55,5.55,0,0,1,.25,2.21c-.14.85-.55,2.39-.55,2.39Zm-.51,5.33c-.09-.21-.81,1.31-.81,1.31a9.63,9.63,0,0,0-.33,1.1,8,8,0,0,1,.2-3c.41-1.49.94-1.73.94-1.73s.39-.4.65.28a4.88,4.88,0,0,1,.16,2.32c-.12.62-.38,1.57-.39,1.61s-.18.34-.26,0c-.12-.57.18-1.09-.16-1.92Zm1.34-13.71c.1-.22.34-.7.49-.74s.47.37.57.69a4,4,0,0,1,.21,1.3,3.81,3.81,0,0,1-.09.94c0,.06-.09.09-.12,0s-.4-.42-.57-.72l-.39.73s-.13.38-.24-.14a5.91,5.91,0,0,1,.14-2Zm-26.71,32s-.23-.3-.38-.3-.37,0-.34.2-.06.84.09.94,0,.2,0,.2a3.12,3.12,0,0,1-1-1,.85.85,0,0,1,.3-1.15,1.2,1.2,0,0,1,1.06.06.87.87,0,0,1,.27,1Zm-.84,3.34a1.81,1.81,0,0,1-1,.94s-.71.11-.75-.09A3.3,3.3,0,0,1,62,93.72a3.64,3.64,0,0,1,.67-1.09c.33-.26.35.11.35.11v1.08c.06-.07,1-.4,1-.31s0,.17-.36.93Zm-5.55.25a6.16,6.16,0,0,1-3.88-1.35s.34-.84,2.16-1.34a6.83,6.83,0,0,1,4.27.55c0,.11-.36.29-.36.29s0,.2-1.45.18-1.61.08-1.65.18.39.42.71.37,3.21.06,3.21.06a4.43,4.43,0,0,1-3,1.06ZM53.55,89c0-.48.68-.88,1.64-.89a5.75,5.75,0,0,1,3.14.58c1.6.68,1.44.78,1.44.78l-2.51.38,3,1.2a10.86,10.86,0,0,1-4.05,0c-2.82-.39-2.72-1.55-2.68-2Zm-.62,3a3.25,3.25,0,0,1-1.56,0,1.46,1.46,0,0,1-1.18-1.33c0-.43,1.09-.51,1.09-.51a3.59,3.59,0,0,1,1.42.15c.5.25.79.42.85.6l-1.17.12.55.93Zm-4.37-5.1c0-.3,1.73.16,1.73.16a5.88,5.88,0,0,1,1.54,1c.16.17-1.26.17-1.26.17s-.18.11.08.5a3.93,3.93,0,0,1,.28.47,3.69,3.69,0,0,1-1.49-.63,1.71,1.71,0,0,1-.88-1.65Zm-.44-2.25A2,2,0,0,1,50,84.23a5.52,5.52,0,0,1,2.58,1.91c-.08.16-.69,0-.69,0s-1.54-.35-1.24-.16.29.39.29.39-.35.39-1.57-.07a1.89,1.89,0,0,1-1.25-1.61Zm-2.59.76a6.09,6.09,0,0,0,1,1.56h0a13.13,13.13,0,0,1-1.73-1.21,3.68,3.68,0,0,1-1-1.25,2.69,2.69,0,0,1,0-.6,5.85,5.85,0,0,1,2.25.69A9.35,9.35,0,0,1,47.51,86l-2-.6Zm0,3.53a3.55,3.55,0,0,1-1.41-2.51,14.54,14.54,0,0,1,2.69,1.77c.19.39.55,1.58.55,1.58a3.43,3.43,0,0,1-1.83-.84Zm-3.87-6.11A12.86,12.86,0,0,1,42.77,84c.07.21.16.29.06.45s-1.9-1.17-2.51-1.93a4.58,4.58,0,0,1-.71-2.29,4.65,4.65,0,0,1,3.08.54c1.25.77,2,2.19,1.87,2.23a2.78,2.78,0,0,1-1.76-.38c-.38-.4-.62-.49-1-.89a3.27,3.27,0,0,0-1.25-.62,5.49,5.49,0,0,0,1.08,1.73Zm-3.49-5.48c-.58-.8-.9-3-.69-3a4.06,4.06,0,0,1,2.64,1.46,11.15,11.15,0,0,1,1.76,3.52c-.86-.38-2.77-3.23-2.77-3.23a11.53,11.53,0,0,0,.33,1.57c.22.73.76,1.6.67,1.58-1.1-.34-1.7-1.56-1.94-1.89Zm-1.29-7c-.07,0-.22,0-.2.09a4.13,4.13,0,0,0,0,1,6,6,0,0,1,.21,1.4A3.71,3.71,0,0,1,36,71.06a5.3,5.3,0,0,1,.32-3c.07-.08.26-.06.26-.06a8.26,8.26,0,0,1,1.29,2.4,14.31,14.31,0,0,0,.78,2.23c.31.56,1.12,1.4,1.15,1.54s-1.12-.2-1.64-.94a3.77,3.77,0,0,1-.7-1.73,4,4,0,0,0-.61-1.19Zm-.75-7.21a3,3,0,0,1,.78-1.57c.17-.12,1.55,1.8,1.93,3a10.35,10.35,0,0,1,.6,3.67,6.41,6.41,0,0,1-.5,2.07c-.08.08-.08-.14-.1-.19s-.3-1.92-.42-2.48a21.09,21.09,0,0,0-1-3.25c-.16-.06-.17.12-.17.2a12.73,12.73,0,0,0-.13,2,6.84,6.84,0,0,1,.17,1.56A5,5,0,0,1,36,65.79a5.35,5.35,0,0,1,.09-2.68Zm.65-4.64a12.32,12.32,0,0,1,.88-2.23c.31,0,1.17,2,1.27,2.35a9.62,9.62,0,0,1,.21,2.48c-.11.08-.45-.69-.57-.9a12.26,12.26,0,0,0-.76-1.61c-.1,0-.2.53-.2.94A8.84,8.84,0,0,1,37.68,61c-.1.06-.41-.31-.65-.55a4.75,4.75,0,0,1-.29-2Zm2-4.92a7.74,7.74,0,0,1,1.73-2.79,7,7,0,0,1,.54,2.3,5,5,0,0,1-.33,2.32c-.15-.06-.15-.68-.21-1s-.22-1-.35-1-.22.49-.43,1c-.29.76,0,2.43-.34,2.49s-1-1.29-.61-3.38ZM42.13,58a2.38,2.38,0,0,1,.9,1.22,4.46,4.46,0,0,1-.18,2.37,16,16,0,0,1-1.41,2.73c0,.06-.08.06-.18,0A10.75,10.75,0,0,1,41.37,62a10.74,10.74,0,0,0,0-2.28c-.16-.07-.63.74-.78,1-.63,1.11-.72,3.69-.77,4.08,0,.12-.13,0-.13,0a5.85,5.85,0,0,1,0-3.75A5.32,5.32,0,0,1,42.13,58Zm-.36-2.52a5.63,5.63,0,0,1,2.32-1.88,4.43,4.43,0,0,1-.31,2.1,5.64,5.64,0,0,1-1,1.63c-.12,0,.27-1.7.18-1.85a4.47,4.47,0,0,0-1.7,2.22c0,.24-.17.09-.17.09a4.18,4.18,0,0,1,.68-2.31Zm.45-7c.36-.8,1.77-1.4,1.77-1.4.26.4,0,1.5-.14,2.23a4.52,4.52,0,0,1-1.15,2c-.08-.09.38-2,.11-2s-.91,1-1,.78a3.06,3.06,0,0,1,.37-1.54Zm2.83-3.1a4,4,0,0,1,1-1.09c.15-.11,1.71-1.57,1.71-1.57a5.52,5.52,0,0,1-.23,2.74,8.43,8.43,0,0,1-.72,1.08s-.48.27-.41,0,0-1.76-.21-1.67-1.29,2.46-1.39,2.18a3.75,3.75,0,0,1,.23-1.72Zm3.86,0a5.1,5.1,0,0,1,2-.7,2.74,2.74,0,0,1-.71,2.17c-1.16,1.39-2.08,1.39-2.08,1.39-.08-.18.62-1.08.62-1.08a2.4,2.4,0,0,0,.6-.54,1.57,1.57,0,0,0,.36-1.07l-1.28.92-.34.26-.63.56s0,.05-.11,0a1,1,0,0,1,.23-.74,8.88,8.88,0,0,1,1.35-1.17Zm1.92-3.76A4.94,4.94,0,0,1,52.05,41a5.1,5.1,0,0,1-.31,1.86c-1.09,1.77-1.44,1.68-1.44,1.68a10.59,10.59,0,0,1,.47-1.21,6.65,6.65,0,0,0,.3-1.18s-.86.6-.88.43a1.76,1.76,0,0,1,.64-1Zm2.36,1.12a4.83,4.83,0,0,1,1.24-.39,2,2,0,0,1-.74,1.77c-1.17.92-1.34.78-1.34.78a2.54,2.54,0,0,1,.57-.73,5,5,0,0,0,.47-.7l-1.1.28s-.07-.49.9-1Zm-6.32,8.52a7.31,7.31,0,0,1-1.6,2.14s-.22.06-.15-.09c.44-.91,1.18-2.83.94-2.75-.6.2-1.9,1.72-2.09,1.58A3.75,3.75,0,0,1,45,50a4.12,4.12,0,0,1,2.08-.88,4.14,4.14,0,0,1-.23,2.17ZM42.72,67.71a15.36,15.36,0,0,1-.39,3.6,26.75,26.75,0,0,1-.43-3c-.19-.81-.44-1.31-.64-1.3s-.35,1.14-.44,1.69,0,1.9-.11,2,.11.29-.12.06a11.45,11.45,0,0,1-.34-3.65,4.92,4.92,0,0,1,1.27-2.66c.23,0,1.22,1.08,1.2,3.25Zm1.08,5.92a5.61,5.61,0,0,1,.78,3,7.82,7.82,0,0,1-1.14-1.58A10.94,10.94,0,0,0,42,73.56c-.16-.14-.2-.15-.27,0s.77,2.5.52,2.57S41.13,75,40.69,74.32s-.57-2.85-.25-2.92a5.89,5.89,0,0,1,3.36,2.23Zm.19-2a1.67,1.67,0,0,1,.86,1A4.71,4.71,0,0,1,45,74.21a.07.07,0,0,1-.11,0A4.92,4.92,0,0,0,44,73.09c-.53-.54-.68-.69-.72-1s.46-.51.71-.39Zm2.26,7a2.51,2.51,0,0,1,.41,1.68c0,.09.08.16-.07.17s-.58-.73-1-1.2a6.41,6.41,0,0,0-1.05-.93l.17,1.19v1.32a3.28,3.28,0,0,1-1.07-2.08A4.4,4.4,0,0,1,44,77.09a4.71,4.71,0,0,1,2.3,1.57Zm1.52,3.57c.71.5,1.08.85,1.08,1s-.4.14-.63.12a2.46,2.46,0,0,1-1.38-.74c-.1-.14.09.73.12,1s0,.4-.06.44-.67-.87-.79-1.11-.51-.92-.3-1.35c0-.11.19-.08.19-.08a6.18,6.18,0,0,1,1.77.76Zm8.1,3.19c1.37,1,1.14,1.76,1.14,1.76a3.07,3.07,0,0,0-1.95-.81l.83,1.13s-.13.1-.54,0a2.21,2.21,0,0,1-1.64-1.39c-.53-1.36,1.4-1.3,2.16-.74Zm2.31,1c.11-.26,1-.06,1-.06s1.43.93,1.56,1.44c0,.22-1.61-.63-1.61-.63s-.15.08-.08.39a.55.55,0,0,1,0,.46l-.82-1a.53.53,0,0,1-.06-.62ZM56.9,40a5.2,5.2,0,0,1,1.5-.37,2.47,2.47,0,0,1-.73,1.92c-1.29,1.05-1.62.77-1.62.77s.43-.6.55-.79.53-.75.53-.75l-1.45.27a2.44,2.44,0,0,1,1.22-1Zm24.63,4.19c0,.12-.48.13-.54,0s0,.75-.31.72-1-.94-1-1.29-.11-.68,0-.85.84,0,1,.13a3.85,3.85,0,0,1,.64.68c.12.23.26.46.21.57ZM79.8,45.94c0,.13.51.23.49.31s-.32.19-1,0a.75.75,0,0,1-.58-.89,1.47,1.47,0,0,1,.82-.25,3,3,0,0,1,1.07.42,1.74,1.74,0,0,1-.8.41Zm-1.22-1.56a3.43,3.43,0,0,1-.78-.17c-.15,0-.67-.18-.67-.18l.09.55a1.08,1.08,0,0,1-.89-.32,1.7,1.7,0,0,1-.43-1.19,7.49,7.49,0,0,1,1.56.3,7.4,7.4,0,0,1,.89.48c.14.12.35.48.23.53Zm-.48-2.77a.91.91,0,0,1,.37,1c-.14.47-.75.09-1-.09a2.24,2.24,0,0,1-.44-1.07s.82,0,1,.2Zm-3.5-1.3a2.3,2.3,0,0,1-1,.22l.64.61a.64.64,0,0,1-.64.22,3.63,3.63,0,0,1-1.23-.48,4.18,4.18,0,0,1-1-1,3.4,3.4,0,0,1,1.53-.3A2.42,2.42,0,0,1,74.3,40c.2.14.37.26.3.35ZM92.7,57s-.26.38-.31.25-.74-2.33-1.28-3.73a17.2,17.2,0,0,0-2-3.61l-.39.16L87.57,49S86.56,47,86,46.27a10.62,10.62,0,0,0-1.92-2.07A11.48,11.48,0,0,0,82.88,44a3.48,3.48,0,0,0-.94-1.37,8.81,8.81,0,0,0-1.61-1.35.28.28,0,0,0-.17.05l-.32.2s0-.32-.91-.83A5.51,5.51,0,0,0,76.37,40a2.29,2.29,0,0,0-1.14-.91c-2-.92-6.53,0-6.53,0a9.79,9.79,0,0,0,3,2.35c1.78,1,2.52.84,2.52.84a16.57,16.57,0,0,0,1.13,1.91,3.39,3.39,0,0,0,1.29,1c.64.34.65.19.65.19s.09.54,1.14,1.39a3.46,3.46,0,0,0,1.41.39l1.18,1.19a6.06,6.06,0,0,1,.44.75A13.23,13.23,0,0,0,83,51.63c.92,1,1.13.81,1.13.81a7.85,7.85,0,0,0,.06,2.08,5.23,5.23,0,0,0,.5,1.46l0,.16a.47.47,0,0,1-.52-.07c-.25-.22.19,2.85.64,4.11a7.92,7.92,0,0,0,1,2L86,64.65s.18,1.6.17,1.78a17.74,17.74,0,0,0-.69,1.87A3.93,3.93,0,0,0,85.43,70s-.36.94-.79,1.85a13.77,13.77,0,0,1-.92,1.61.75.75,0,0,0-.59.35,1.44,1.44,0,0,0-.09.87,2.33,2.33,0,0,0-.94.94,11,11,0,0,0-.91,4s-.16,0-.48-.21a2.21,2.21,0,0,0-.55-.13l-.6,1.14c-.28.52-.57,1.24-.57,1.24a4.71,4.71,0,0,0-1.29.19A3.49,3.49,0,0,0,76,83.19a2.53,2.53,0,0,0-1.35.14,5,5,0,0,0-2.09,2.6,13.45,13.45,0,0,0-2.67.87,4.17,4.17,0,0,0-1.69,1.3,3.73,3.73,0,0,0-1.56.14A6.71,6.71,0,0,0,65,89.33s-.78-.51-1.14-.69a4.44,4.44,0,0,0-1.21-.23,14.36,14.36,0,0,0-1.31-1.75c-.1-.09-1.44-1.5-1.44-1.5a10.19,10.19,0,0,0-1.6,0,12,12,0,0,1-1.29,0A2.51,2.51,0,0,0,55,84a4.67,4.67,0,0,0-2.28.46,22.29,22.29,0,0,1-3.85-2.85c-.23-.29-1.16-.45-1.16-.45a3.48,3.48,0,0,0-.2-2,11.67,11.67,0,0,0-1.86-2.14c-.17,0,.65-3.39,0-5-.26-.64-1.91-1.81-1.91-1.81a18.33,18.33,0,0,0-.2-4.11,10.23,10.23,0,0,0-1-2.09,22,22,0,0,0,1.18-4,6.42,6.42,0,0,0-.17-2.4s-.11-.53,1-1.93a20.4,20.4,0,0,0,2.24-2.68,10,10,0,0,0,1.93-4.07,6.46,6.46,0,0,0,1.92-1.17,5.12,5.12,0,0,0,1.13-1.42,14.12,14.12,0,0,0,2.37-1.59c1.05-.9.87-.84.87-.84a18.27,18.27,0,0,0,3.2-2.05A6.37,6.37,0,0,0,59.84,40a6.87,6.87,0,0,0,.38-1.35,13.85,13.85,0,0,0-3.48.4,5.52,5.52,0,0,0-2,1.52c-.06.09-.33.08-.71.19l-.75.23,0-1.28a7.66,7.66,0,0,0-2.46.76,5.29,5.29,0,0,0-1.94,1.6,3.7,3.7,0,0,0,0-.43.79.79,0,0,0-.18-.38A7,7,0,0,0,45.55,43a6.54,6.54,0,0,0-1.88,2.28l-.23,1A10.39,10.39,0,0,0,41.15,48a2.43,2.43,0,0,0-.49,1.18,5.81,5.81,0,0,0-2.33,2.71,6.21,6.21,0,0,0-.54,2.16,6.88,6.88,0,0,0-1.56,3,10.09,10.09,0,0,0-.25,3.3c0,.11-1.21,3.34-1.07,4.74a5.07,5.07,0,0,0,.35,1.73A3.65,3.65,0,0,0,34.75,69a11.82,11.82,0,0,0,1.42,4.76c.29.22,0,1.81.74,3.33a9.24,9.24,0,0,0,1.69,2.68s-.41,1.76,1.68,4.24A10.64,10.64,0,0,0,43,86.57a7.27,7.27,0,0,0,2.48,3.23A5.06,5.06,0,0,0,48.22,91a5,5,0,0,0,2,1.55A5.68,5.68,0,0,0,52,93s.26.87,1.73,1.53a16.61,16.61,0,0,0,4.74.76L61,95.12l.16,1.31a3.07,3.07,0,0,0,1.89-.5,4,4,0,0,0,1.25-1,2.81,2.81,0,0,0,1.24,1.27,3.8,3.8,0,0,0,1.94.38A1.47,1.47,0,0,0,67.8,96c.06-.39.1-.62.1-.62a2.31,2.31,0,0,0,1.32.44A5.66,5.66,0,0,0,71,95.7a2.33,2.33,0,0,0,0-.5c-.07-.56,0-.35,0-.35a4.08,4.08,0,0,0,1.76.35c1.2,0,1.06-.1,1.17-.16.26-.13.35-1.07.35-1.07a6.31,6.31,0,0,0,3.13-.4c1.32-.65,1.39-1.07,1.39-1.07a6.33,6.33,0,0,0,3.12-1.63c1-1.21,1-1.54,1-1.54A3.89,3.89,0,0,0,85,88c.8-1.08.63-1.44.63-1.44a8.92,8.92,0,0,0,3.76-3.32,11.42,11.42,0,0,0,1.39-2.61,10.45,10.45,0,0,0,1.49-3.53,8.94,8.94,0,0,0,.14-3.44s2-2.33,2-7.28A25.41,25.41,0,0,0,92.7,57Z" transform="translate(-18 -20)" fill="#487959"/><path d="M78,59.4c0,14.65-13.73,21.9-13.73,21.9S50.56,74,50.56,59.4c0-9.28,4.72-10.76,8.89-10.76,3.6,0,4.83,2.06,4.83,2.06a6.81,6.81,0,0,1,4.84-2.09c4,0,8.89,1.13,8.89,10.79Z" transform="translate(-18 -20)" fill="#a82024"/><g clip-path="url(#clip-path)"><path d="M96.64,66.51a32.1,32.1,0,1,1-32.1-32.09,32.09,32.09,0,0,1,32.1,32.09Zm10.65,0A42.69,42.69,0,1,1,64.6,23.84a42.68,42.68,0,0,1,42.69,42.68Z" transform="translate(-18 -20)" fill="none" stroke="#a28f5d" stroke-miterlimit="10" stroke-width="1.74"/></g><path d="M45.44,32l.07.11a.44.44,0,0,0-.14.17.88.88,0,0,0,0,.24s0,.21.11.55l.89,3.9-.11.08-2.55-1.82.58,3.12-.1.07-3.29-2.26a5.92,5.92,0,0,0-.64-.39.42.42,0,0,0-.33.06l-.07-.11,1.64-1.08.07.1a.56.56,0,0,0-.22.23.22.22,0,0,0,0,.18,2,2,0,0,0,.44.36l1.95,1.34L43.38,35l-.42-.3a5,5,0,0,0-.49-.31.56.56,0,0,0-.27,0,.73.73,0,0,0-.3.13l-.07-.1,1.83-1.22.07.1a1.19,1.19,0,0,0-.25.22.21.21,0,0,0,0,.13.27.27,0,0,0,0,.12,1.92,1.92,0,0,0,.39.31l1.88,1.33-.46-2a3.46,3.46,0,0,0-.11-.43,1.5,1.5,0,0,0-.09-.18.27.27,0,0,0-.2-.13.56.56,0,0,0-.34.13l-.07-.11,1-.65Z" transform="translate(-18 -20)"/><path d="M49.11,30.56a1,1,0,0,0-.62,1A3.42,3.42,0,0,0,48.84,33a2.86,2.86,0,0,0,1,1.42.94.94,0,0,0,.89.05,1,1,0,0,0,.46-.38,1.36,1.36,0,0,0,.16-.81,5,5,0,0,0-1-2.37,1.33,1.33,0,0,0-.64-.41,1,1,0,0,0-.62.07ZM49,30.33a2.42,2.42,0,0,1,1.88-.07,2.29,2.29,0,0,1,1.28,1.29,2.37,2.37,0,0,1,.13,1.59,2.22,2.22,0,0,1-1.4,1.54,2.29,2.29,0,0,1-2.06,0,2.39,2.39,0,0,1-1.1-1.22,2.3,2.3,0,0,1,0-1.82A2.38,2.38,0,0,1,49,30.33Z" transform="translate(-18 -20)"/><path d="M54.37,28.84l.48,1.93.19-.05a2.25,2.25,0,0,0,.65-.25.66.66,0,0,0,.28-.39,1.09,1.09,0,0,0,0-.59,1.06,1.06,0,0,0-.41-.69,1.1,1.1,0,0,0-.82-.05l-.35.09ZM54.91,31l.31,1.23a1.56,1.56,0,0,0,.15.44.4.4,0,0,0,.19.11,1.08,1.08,0,0,0,.43-.05l0,.12-2.25.56,0-.12a.91.91,0,0,0,.39-.16.29.29,0,0,0,.12-.18,1.25,1.25,0,0,0-.07-.46l-.71-2.86a1.7,1.7,0,0,0-.15-.44.32.32,0,0,0-.2-.1,1,1,0,0,0-.42,0l0-.12,2-.51a4.79,4.79,0,0,1,1.19-.18,1.18,1.18,0,0,1,.7.26,1.15,1.15,0,0,1,.26,1.53,1.53,1.53,0,0,1-.55.46l1.43,1.22a2.24,2.24,0,0,0,.39.29.46.46,0,0,0,.33,0l0,.12-1.39.35L55.2,30.93l-.29.07Z" transform="translate(-18 -20)"/><path d="M63,27.14l.14,1.57H63a1.62,1.62,0,0,0-.63-.89,1.42,1.42,0,0,0-.93-.24,1.32,1.32,0,0,0-.76.31,1.36,1.36,0,0,0-.45.68,2.85,2.85,0,0,0-.11,1.14,3.56,3.56,0,0,0,.25,1.09,1.45,1.45,0,0,0,.55.71,1.34,1.34,0,0,0,.87.18,1.64,1.64,0,0,0,.76-.26,2.6,2.6,0,0,0,.69-.71l0,.39a2.6,2.6,0,0,1-.74.65,2.41,2.41,0,0,1-1,.26,2.64,2.64,0,0,1-1.3-.17,2.13,2.13,0,0,1-1-.75A2.46,2.46,0,0,1,58.91,30a2.42,2.42,0,0,1,.23-1.26,2.39,2.39,0,0,1,.83-1,2.45,2.45,0,0,1,1.19-.43,2.83,2.83,0,0,1,1,.11,2.36,2.36,0,0,0,.4.09.24.24,0,0,0,.18-.1.42.42,0,0,0,.08-.26Z" transform="translate(-18 -20)"/><path d="M66.28,27.57l-.1,1.84h.09a.74.74,0,0,0,.64-.24,1.72,1.72,0,0,0,.29-.78h.13l-.13,2.38h-.13a1.9,1.9,0,0,0-.14-.65.73.73,0,0,0-.28-.35,1.14,1.14,0,0,0-.49-.11l-.07,1.28a1.88,1.88,0,0,0,0,.46.29.29,0,0,0,.11.14.6.6,0,0,0,.28.07l.27,0a1.65,1.65,0,0,0,1-.24,1.63,1.63,0,0,0,.6-.87h.13L68.23,32l-3.91-.22v-.12h.14a.64.64,0,0,0,.33-.05.34.34,0,0,0,.14-.15A1.21,1.21,0,0,0,65,31l.16-3a2.74,2.74,0,0,0,0-.38.29.29,0,0,0-.12-.18.55.55,0,0,0-.34-.12h-.15v-.13l3.79.21-.08,1.34h-.12a1.67,1.67,0,0,0-.24-.72,1,1,0,0,0-.48-.34,2.52,2.52,0,0,0-.69-.1l-.47,0Z" transform="translate(-18 -20)"/><path d="M73.18,28.09l-.24,1.49-.13,0a1.62,1.62,0,0,0-.3-1,1.26,1.26,0,0,0-.75-.49.79.79,0,0,0-.56.08.54.54,0,0,0-.27.38.41.41,0,0,0,0,.27,1.05,1.05,0,0,0,.24.37c.09.09.31.26.64.51a3,3,0,0,1,.92.93,1.26,1.26,0,0,1,.13.83,1.27,1.27,0,0,1-.62.88,1.58,1.58,0,0,1-1.18.2,2.22,2.22,0,0,1-.39-.12,2.34,2.34,0,0,1-.44-.25.73.73,0,0,0-.25-.11.33.33,0,0,0-.19,0,.44.44,0,0,0-.19.17l-.13,0,.32-1.69.12,0a2,2,0,0,0,.36,1.18,1.33,1.33,0,0,0,.82.54.81.81,0,0,0,.62-.09.62.62,0,0,0,.31-.42.62.62,0,0,0,0-.33,1.28,1.28,0,0,0-.2-.32,3.79,3.79,0,0,0-.54-.46,5,5,0,0,1-.78-.68,1.51,1.51,0,0,1-.32-.54,1.11,1.11,0,0,1,0-.6,1.27,1.27,0,0,1,.56-.84,1.42,1.42,0,0,1,1.06-.19,1.79,1.79,0,0,1,.41.13,2.68,2.68,0,0,1,.35.22,1.07,1.07,0,0,0,.29.17.19.19,0,0,0,.15,0,.61.61,0,0,0,.13-.24l.1,0Z" transform="translate(-18 -20)"/><path d="M78.85,29.87,78.47,31l-.12,0a2.06,2.06,0,0,0,0-.65.9.9,0,0,0-.25-.39,1.11,1.11,0,0,0-.4-.2l-.33-.11L76.26,33a1.13,1.13,0,0,0-.1.43.36.36,0,0,0,.09.19.66.66,0,0,0,.28.15l.14,0,0,.12-2.26-.74,0-.12.14,0a.66.66,0,0,0,.33,0,.3.3,0,0,0,.18-.11,1.32,1.32,0,0,0,.16-.39l1.09-3.32-.31-.1a.87.87,0,0,0-.69,0,1.31,1.31,0,0,0-.6.61l-.11,0L75,28.61l3.87,1.26Z" transform="translate(-18 -20)"/><path d="M81.63,31.41l-.82,1.66.08,0a.72.72,0,0,0,.68,0,1.71,1.71,0,0,0,.58-.61l.11.06-1.05,2.13-.11-.06a1.86,1.86,0,0,0,.13-.64.81.81,0,0,0-.12-.43,1.17,1.17,0,0,0-.41-.3l-.56,1.14a1.82,1.82,0,0,0-.18.43A.25.25,0,0,0,80,35a.5.5,0,0,0,.23.17l.24.12a1.63,1.63,0,0,0,1,.19,1.61,1.61,0,0,0,.89-.57l.12.06-.83,1.2-3.51-1.73,0-.11.14.06a.57.57,0,0,0,.31.08.29.29,0,0,0,.19-.08,1.34,1.34,0,0,0,.22-.36l1.32-2.68a2,2,0,0,0,.15-.35.25.25,0,0,0,0-.21.54.54,0,0,0-.27-.24l-.13-.07,0-.11,3.41,1.68L83,33.29l-.12-.06a1.61,1.61,0,0,0,.07-.75,1.13,1.13,0,0,0-.31-.5,2.51,2.51,0,0,0-.6-.36l-.42-.21Z" transform="translate(-18 -20)"/><path d="M86.46,34.14l-1.13,1.63.16.11a2.1,2.1,0,0,0,.62.33.69.69,0,0,0,.47-.05,1,1,0,0,0,.44-.4,1.05,1.05,0,0,0,.24-.77,1.12,1.12,0,0,0-.5-.65l-.3-.2ZM85.2,36l-.73,1a1.37,1.37,0,0,0-.22.41.36.36,0,0,0,0,.22,1,1,0,0,0,.32.28l-.07.11-1.91-1.32.07-.11a1.06,1.06,0,0,0,.38.2.31.31,0,0,0,.22,0,1.31,1.31,0,0,0,.3-.35L85.27,34a1.37,1.37,0,0,0,.23-.41.32.32,0,0,0,0-.21,1.18,1.18,0,0,0-.32-.29l.07-.1,1.73,1.2a4.71,4.71,0,0,1,.93.77,1.29,1.29,0,0,1,.27.7,1.09,1.09,0,0,1-.21.73,1.12,1.12,0,0,1-.77.48,1.6,1.6,0,0,1-.71-.11l0,1.88a1.69,1.69,0,0,0,0,.48.52.52,0,0,0,.19.27l-.07.1-1.17-.81,0-2.53L85.2,36Z" transform="translate(-18 -20)"/><path d="M28.86,51.92l1.65,0-1.15-1.2-.5,1.23Zm-.27,0,.6-1.45-.33-.33a1.16,1.16,0,0,0-.29-.22.31.31,0,0,0-.31,0,1,1,0,0,0-.24.37l-.11-.05.55-1.36.12.05a.66.66,0,0,0,0,.44,2.92,2.92,0,0,0,.47.6l2.65,2.78,0,.06L27.77,53a2.35,2.35,0,0,0-.74.1.52.52,0,0,0-.23.25l-.11,0,.81-2,.11.05,0,.08a.73.73,0,0,0-.08.36.22.22,0,0,0,.12.13l.11,0h.86Z" transform="translate(-18 -20)"/><path d="M29.38,60.68l-1.16-.25,0-.12a1.78,1.78,0,0,0,.63-.1.78.78,0,0,0,.35-.28,1,1,0,0,0,.15-.41l.07-.32-3.31-.72a1.4,1.4,0,0,0-.43,0,.33.33,0,0,0-.17.11.56.56,0,0,0-.12.28l0,.14-.11,0,.48-2.26.12,0,0,.15a.58.58,0,0,0,0,.32.36.36,0,0,0,.12.16,1.79,1.79,0,0,0,.4.12l3.32.72.06-.32a.92.92,0,0,0,0-.67,1.3,1.3,0,0,0-.66-.51l0-.12,1.17.26-.84,3.87Z" transform="translate(-18 -20)"/><path d="M29,63.43a1,1,0,0,0-.55-1A3.19,3.19,0,0,0,27,62.09a2.75,2.75,0,0,0-1.69.27.88.88,0,0,0-.44.74.89.89,0,0,0,.12.57,1.33,1.33,0,0,0,.62.5,3.79,3.79,0,0,0,1.18.25,3.68,3.68,0,0,0,1.31-.06,1.26,1.26,0,0,0,.64-.37,1,1,0,0,0,.23-.56Zm.25,0a2.35,2.35,0,0,1-.79,1.66,2.23,2.23,0,0,1-1.68.53A2.41,2.41,0,0,1,25.32,65a2.16,2.16,0,0,1-.69-1.9,2.21,2.21,0,0,1,.94-1.77,2.37,2.37,0,0,1,1.55-.4,2.18,2.18,0,0,1,1.57.8,2.27,2.27,0,0,1,.53,1.69Z" transform="translate(-18 -20)"/><path d="M29.41,72.48h-.12a.34.34,0,0,0-.09-.2.42.42,0,0,0-.18-.13L28.5,72l-3.74-1.06V70.8l2.74-1.33-2.93-1,0-.12L28,66.64a3.45,3.45,0,0,0,.63-.37.38.38,0,0,0,.11-.3h.12L29,67.87H28.9a.49.49,0,0,0-.1-.3.2.2,0,0,0-.16-.07,2.51,2.51,0,0,0-.51.2l-2.05,1.05,1.72.55.45-.22a2.47,2.47,0,0,0,.49-.28.54.54,0,0,0,.17-.2.63.63,0,0,0,0-.32h.13l.18,2.13h-.12a1.2,1.2,0,0,0-.07-.31A.27.27,0,0,0,29,70a.15.15,0,0,0-.13,0,1.53,1.53,0,0,0-.44.19l-2,1,1.94.56a3.14,3.14,0,0,0,.41.1.69.69,0,0,0,.2,0,.26.26,0,0,0,.2-.11.61.61,0,0,0,.06-.35h.12l.09,1.14Z" transform="translate(-18 -20)"/><path d="M29.87,74l-2.12,2.77,1.83-.45a1,1,0,0,0,.5-.24.68.68,0,0,0,.05-.56l.11,0L30.59,77l-.11,0a1.23,1.23,0,0,0-.18-.34.35.35,0,0,0-.22-.1,1.11,1.11,0,0,0-.44,0l-3.56.88,0-.11,2.84-3.77-2.72.67a.61.61,0,0,0-.45.29.68.68,0,0,0,0,.42l0,.1-.12,0-.38-1.52.12,0a.7.7,0,0,0,.27.46.71.71,0,0,0,.51,0l3-.75.09-.12a.78.78,0,0,0,.16-.29.7.7,0,0,0,0-.32l.12,0L29.87,74Z" transform="translate(-18 -20)"/><path d="M31.47,79.56l.11,0,.92,2.16-.11,0-.06-.13a.54.54,0,0,0-.19-.26.27.27,0,0,0-.19-.06,1.26,1.26,0,0,0-.39.13l-2,.84a2.22,2.22,0,0,1-.9.24,1.09,1.09,0,0,1-.62-.22,1.56,1.56,0,0,1-.48-.65,1.3,1.3,0,0,1-.08-.94A.87.87,0,0,1,28,80.1a.53.53,0,0,1,.39,0,.44.44,0,0,1,.26.26.5.5,0,0,1,0,.36.43.43,0,0,1-.24.24.28.28,0,0,1-.15,0l-.19,0a.52.52,0,0,0-.21,0,.19.19,0,0,0-.1.14.49.49,0,0,0,0,.33.32.32,0,0,0,.16.18.35.35,0,0,0,.25,0,4.05,4.05,0,0,0,.79-.29l2.16-.92a1.61,1.61,0,0,0,.38-.2A.42.42,0,0,0,31.6,80a.59.59,0,0,0-.06-.3l-.07-.17Z" transform="translate(-18 -20)"/><path d="M32.53,81.82l1.12,2-.11.06,0-.1a.8.8,0,0,0-.22-.28.3.3,0,0,0-.2,0,1.65,1.65,0,0,0-.43.2l-1.87,1.06a2.11,2.11,0,0,0-.64.46.71.71,0,0,0-.13.41,1,1,0,0,0,.14.52,1.19,1.19,0,0,0,.44.45,1,1,0,0,0,.57.11,2.64,2.64,0,0,0,.92-.38l1.56-.88a1,1,0,0,0,.34-.26.42.42,0,0,0,.08-.22,1,1,0,0,0-.14-.4l.1-.06.75,1.33-.1.06,0-.08a.61.61,0,0,0-.22-.23.39.39,0,0,0-.28,0,1.11,1.11,0,0,0-.35.15l-1.45.82a4.18,4.18,0,0,1-1,.46,1.19,1.19,0,0,1-.8-.12,1.73,1.73,0,0,1-.78-.8,2.13,2.13,0,0,1-.31-.84,1.38,1.38,0,0,1,.17-.79,1.89,1.89,0,0,1,.67-.59l1.88-1.06a1.31,1.31,0,0,0,.39-.27.32.32,0,0,0,.06-.2,1,1,0,0,0-.15-.35l.11-.06Z" transform="translate(-18 -20)"/><path d="M35.79,87.13l-.86,3.38,1.5-1.14a1,1,0,0,0,.36-.41.63.63,0,0,0-.17-.53l.1-.07.88,1.16-.1.07a1.16,1.16,0,0,0-.3-.24.39.39,0,0,0-.24,0,1.21,1.21,0,0,0-.38.22l-2.92,2.22-.07-.09,1.12-4.59-2.23,1.69a.6.6,0,0,0-.3.45.66.66,0,0,0,.13.4l.07.08-.1.07-1-1.25.1-.07a.54.54,0,0,0,.91.13l2.47-1.88,0-.14a1.13,1.13,0,0,0,0-.34.66.66,0,0,0-.14-.28l.1-.08.95,1.25Z" transform="translate(-18 -20)"/><path d="M38.75,91.05l-1.28,1.26.06.07a.69.69,0,0,0,.62.24,1.65,1.65,0,0,0,.72-.37l.09.09L37.32,94l-.09-.09a1.69,1.69,0,0,0,.32-.55.69.69,0,0,0,0-.44,1.17,1.17,0,0,0-.28-.4l-.88.87a1.52,1.52,0,0,0-.3.34.25.25,0,0,0,0,.17.51.51,0,0,0,.15.24l.19.18a1.6,1.6,0,0,0,.9.51,1.64,1.64,0,0,0,1-.23l.09.08-1.14.84-2.68-2.71.09-.09.1.11a.58.58,0,0,0,.27.17.28.28,0,0,0,.2,0,1.88,1.88,0,0,0,.32-.27l2.06-2a3.21,3.21,0,0,0,.25-.27.32.32,0,0,0,0-.21.6.6,0,0,0-.18-.3l-.1-.11.09-.08,2.59,2.63-.92.91-.09-.09a1.58,1.58,0,0,0,.3-.67,1,1,0,0,0-.12-.55,2.79,2.79,0,0,0-.44-.53l-.32-.33Z" transform="translate(-18 -20)"/><path d="M43.85,95l-2.14,2.9a2.87,2.87,0,0,0-.28.44.34.34,0,0,0,0,.24.66.66,0,0,0,.25.27l.08.06-.07.1-1.87-1.38.07-.1.09.07a1,1,0,0,0,.37.19.31.31,0,0,0,.23-.05,1.72,1.72,0,0,0,.35-.4L42.3,95.5a1.93,1.93,0,0,0,.21-.32.26.26,0,0,0,0-.17.33.33,0,0,0-.11-.15A1,1,0,0,0,42,94.7l0-.13,1.74.37.09.06Z" transform="translate(-18 -20)"/><path d="M43.7,98.35l1.1.66.89-1.49-2,.83Zm-.27-.16,3.25-1.35L47,97l-1.46,2.43.34.21-.34.57-.35-.21-.51.85-.77-.46.51-.85-1.37-.82.35-.57Z" transform="translate(-18 -20)"/><path d="M45.28,102.51l.07-.12a1.21,1.21,0,0,0,.68-.12,1,1,0,0,0,.4-.38.15.15,0,0,0,0-.09l0,0h-.06a.53.53,0,0,1-.23-.06.45.45,0,0,1-.23-.29.5.5,0,0,1,0-.38.51.51,0,0,1,.32-.25.58.58,0,0,1,.43,0,.66.66,0,0,1,.32.42.87.87,0,0,1-.11.61,1.31,1.31,0,0,1-.63.6,1.62,1.62,0,0,1-1,.07Z" transform="translate(-18 -20)"/><path d="M52.64,99.59,51.38,103a2,2,0,0,0-.14.49.33.33,0,0,0,.07.23.77.77,0,0,0,.32.19l.09,0,0,.12-2.18-.81,0-.12.11.05a1.07,1.07,0,0,0,.41.08.36.36,0,0,0,.21-.11,1.83,1.83,0,0,0,.22-.48l.8-2.14a1.1,1.1,0,0,0,.1-.37.3.3,0,0,0,0-.16.31.31,0,0,0-.16-.11,1,1,0,0,0-.41,0v-.13l1.77-.13.11,0Z" transform="translate(-18 -20)"/><path d="M53.64,104.72l2.1-3.2-.88-.24a1.77,1.77,0,0,0-.82-.07.75.75,0,0,0-.4.27l-.11,0,.66-1.24,2.54.68-2.6,4-.49-.13Z" transform="translate(-18 -20)"/><path d="M58.83,105.73l-2.56-.44v-.07A13.42,13.42,0,0,0,58,103.59a2.14,2.14,0,0,0,.42-.91.8.8,0,0,0-.12-.59.7.7,0,0,0-.47-.31.88.88,0,0,0-.85.36l-.11-.06a1.78,1.78,0,0,1,.68-.82,1.28,1.28,0,0,1,.86-.15,1.27,1.27,0,0,1,.58.25,1.19,1.19,0,0,1,.36.5,1,1,0,0,1,.06.52,1.73,1.73,0,0,1-.38.83,8.22,8.22,0,0,1-1.69,1.41l.93.16a3,3,0,0,0,.46,0,.4.4,0,0,0,.19-.07,1.73,1.73,0,0,0,.23-.26h.11l-.46,1.22Z" transform="translate(-18 -20)"/><path d="M62.53,106.08l-2.59-.2v-.07A13.63,13.63,0,0,0,61.53,104a2.13,2.13,0,0,0,.33-.94.82.82,0,0,0-.17-.58.67.67,0,0,0-.5-.26.84.84,0,0,0-.81.44l-.12-.05a1.81,1.81,0,0,1,.6-.88,1.28,1.28,0,0,1,.85-.24,1.38,1.38,0,0,1,.6.2,1.19,1.19,0,0,1,.4.46.94.94,0,0,1,.11.52,1.89,1.89,0,0,1-.3.86A8.72,8.72,0,0,1,61,105.11l.94.07a1.64,1.64,0,0,0,.46,0,.37.37,0,0,0,.18-.08,1.37,1.37,0,0,0,.2-.28h.12l-.34,1.26Z" transform="translate(-18 -20)"/><path d="M69.78,104.23l-.85-1.41-.47,1.59,1.32-.18Zm.15.22-1.55.21-.12.45a1.06,1.06,0,0,0-.05.36.28.28,0,0,0,.19.25,1,1,0,0,0,.44,0v.12l-1.45.2,0-.12a.64.64,0,0,0,.36-.25A2.33,2.33,0,0,0,68,105l1.09-3.7h.06l2.06,3.36a2.51,2.51,0,0,0,.46.59.54.54,0,0,0,.33.07v.12l-2.11.29,0-.12.09,0a.75.75,0,0,0,.35-.11.18.18,0,0,0,.05-.16.56.56,0,0,0,0-.12l-.13-.23-.3-.51Z" transform="translate(-18 -20)"/><path d="M77.3,99.22l.47,1.46-.12,0a1.58,1.58,0,0,0-.79-.71,1.38,1.38,0,0,0-.94,0,1.36,1.36,0,0,0-.93,1.21,2.67,2.67,0,0,0,.14,1.1,3.65,3.65,0,0,0,.47,1,1.49,1.49,0,0,0,.68.56,1.34,1.34,0,0,0,.86,0,1.84,1.84,0,0,0,.67-.41,2.69,2.69,0,0,0,.5-.82l.12.36a2.45,2.45,0,0,1-.57.77,2.39,2.39,0,0,1-.84.46,2.67,2.67,0,0,1-1.27.11,1.92,1.92,0,0,1-1.06-.51,2.18,2.18,0,0,1-.63-1,2.33,2.33,0,0,1-.06-1.23,2.43,2.43,0,0,1,1.62-1.78,2.87,2.87,0,0,1,1-.11,1.36,1.36,0,0,0,.39,0,.23.23,0,0,0,.15-.12.46.46,0,0,0,0-.27l.12,0Z" transform="translate(-18 -20)"/><path d="M81.59,102.09l0,.11-2.11.94,0-.11.14-.06a.74.74,0,0,0,.25-.19.31.31,0,0,0,.06-.19,1.64,1.64,0,0,0-.13-.39l-1.18-2.65a1.46,1.46,0,0,0-.2-.37.37.37,0,0,0-.19-.08.58.58,0,0,0-.3.06l-.13.06,0-.11,2.11-.93,0,.11-.14.06a.55.55,0,0,0-.25.19.29.29,0,0,0-.06.19,1.26,1.26,0,0,0,.13.39l1.17,2.65a1.27,1.27,0,0,0,.21.37.36.36,0,0,0,.19.07.58.58,0,0,0,.3-.06l.13-.06Z" transform="translate(-18 -20)"/><path d="M83.64,96.1l.59,1-.1.06a2,2,0,0,0-.49-.4.84.84,0,0,0-.45-.08,1.12,1.12,0,0,0-.4.16L82.5,97l1.67,3a1.57,1.57,0,0,0,.24.35.39.39,0,0,0,.2.05.6.6,0,0,0,.29-.09l.13-.07.06.1-2,1.14-.06-.1.12-.08a.56.56,0,0,0,.24-.21.31.31,0,0,0,0-.2,1.11,1.11,0,0,0-.17-.37l-1.67-3-.28.16a.93.93,0,0,0-.47.48,1.21,1.21,0,0,0,.06.83l-.11.06-.59-1,3.45-2Z" transform="translate(-18 -20)"/><path d="M87.6,93.19l.07.1a.56.56,0,0,0-.19.3,3.63,3.63,0,0,0,0,.9l.19,1.85.64.85a1.45,1.45,0,0,0,.28.32.32.32,0,0,0,.2,0,.62.62,0,0,0,.27-.12l.19-.14.08.09-2,1.49-.07-.1.19-.14a.61.61,0,0,0,.2-.24.27.27,0,0,0,0-.2,1.23,1.23,0,0,0-.22-.35L87,97.12l-2-.88a2.57,2.57,0,0,0-.74-.27.61.61,0,0,0-.34.12L83.85,96l1.7-1.27.07.09-.08.06a.53.53,0,0,0-.18.21.17.17,0,0,0,0,.14,2.14,2.14,0,0,0,.56.31l1.51.69-.16-1.54a1.83,1.83,0,0,0-.15-.69.18.18,0,0,0-.16-.07.78.78,0,0,0-.38.16L86.52,94l1.08-.81Z" transform="translate(-18 -20)"/><path d="M90.29,90.88l1.32,1.24L91.7,92a1.12,1.12,0,0,0,.26-.41.78.78,0,0,0,0-.43,1.34,1.34,0,0,0-.29-.51l.08-.08,1.6,1.52-.07.08a1.15,1.15,0,0,0-.84-.33,1.09,1.09,0,0,0-.57.32l-.09.09,1,.93a1.54,1.54,0,0,0,.34.26.31.31,0,0,0,.21,0,.51.51,0,0,0,.24-.17l.1-.1.09.08L92.16,95l-.09-.08.1-.11a.6.6,0,0,0,.16-.27.28.28,0,0,0,0-.2A1.12,1.12,0,0,0,92,94l-2.11-2a1.35,1.35,0,0,0-.33-.26.37.37,0,0,0-.21,0,.69.69,0,0,0-.25.17L89,92,89,91.93l2.55-2.71.92.87-.09.1a1.16,1.16,0,0,0-.64-.29,1,1,0,0,0-.59.19,2.85,2.85,0,0,0-.53.49l-.29.3Z" transform="translate(-18 -20)"/><path d="M92.9,87.82l1.44,1.07.06-.07a.74.74,0,0,0,.15-.65,1.74,1.74,0,0,0-.48-.66l.07-.1L96,88.79l-.07.1a1.79,1.79,0,0,0-.6-.24.74.74,0,0,0-.43,0,1.1,1.1,0,0,0-.35.34l1,.74a2,2,0,0,0,.38.24.28.28,0,0,0,.18,0,.57.57,0,0,0,.2-.19l.16-.21a1.67,1.67,0,0,0,.36-1,1.63,1.63,0,0,0-.38-.95l.07-.1,1,1-2.27,3.06-.09-.07.08-.12a.57.57,0,0,0,.13-.29.27.27,0,0,0,0-.19,1.11,1.11,0,0,0-.31-.28L92.67,89l-.3-.21a.26.26,0,0,0-.21,0,.59.59,0,0,0-.28.21l-.09.12L91.7,89l2.2-3,1,.78-.07.1a1.57,1.57,0,0,0-.71-.2,1,1,0,0,0-.53.21,2.26,2.26,0,0,0-.45.51l-.28.37Z" transform="translate(-18 -20)"/><path d="M97.05,85.16l1.23.7.14.08a.31.31,0,0,0,.27,0,.36.36,0,0,0,.21-.18,1,1,0,0,0,.14-.48.81.81,0,0,0-.13-.45,1.1,1.1,0,0,0-.36-.35,1,1,0,0,0-.56-.14.77.77,0,0,0-.49.17,2,2,0,0,0-.45.6ZM96.83,85a1.94,1.94,0,0,0,.25-.65A.78.78,0,0,0,97,84a.91.91,0,0,0-.36-.34.93.93,0,0,0-.47-.14.76.76,0,0,0-.41.15,1.77,1.77,0,0,0-.43.56l1.51.85Zm.66-1a2.23,2.23,0,0,1,.74-.59.91.91,0,0,1,.85.06,1,1,0,0,1,.52.75,2.28,2.28,0,0,1-.37,1.44l-1.1,2L98,87.6a1.25,1.25,0,0,0,.16-.39.39.39,0,0,0-.05-.2,1.42,1.42,0,0,0-.37-.27l-2.49-1.4a1.41,1.41,0,0,0-.41-.19.31.31,0,0,0-.2.07.9.9,0,0,0-.26.33l-.1-.06,1-1.84a3.09,3.09,0,0,1,.65-.87,1,1,0,0,1,.59-.23,1,1,0,0,1,.59.12.77.77,0,0,1,.38.48,1.61,1.61,0,0,1-.06.9Z" transform="translate(-18 -20)"/><path d="M98.21,77.42l.11,0a.64.64,0,0,0,0,.36,3.37,3.37,0,0,0,.49.76l1.11,1.49,1,.4a1.4,1.4,0,0,0,.41.13.34.34,0,0,0,.19-.08.52.52,0,0,0,.16-.23l.1-.23.11,0-.94,2.3-.11,0,.08-.22a.63.63,0,0,0,.06-.31.38.38,0,0,0-.09-.18,1.42,1.42,0,0,0-.37-.19l-.82-.33-2.13.24a3.07,3.07,0,0,0-.78.15.53.53,0,0,0-.22.28l-.11,0,.8-2,.11,0,0,.09a.43.43,0,0,0,0,.27.12.12,0,0,0,.08.11,1.86,1.86,0,0,0,.64,0l1.65-.19-.93-1.24a1.75,1.75,0,0,0-.48-.52.18.18,0,0,0-.17,0,.71.71,0,0,0-.24.33l-.12,0,.52-1.25Z" transform="translate(-18 -20)"/><path d="M101.66,77.56a.52.52,0,0,1,.26-.32.54.54,0,0,1,.73.22.56.56,0,0,1,0,.42.52.52,0,0,1-.26.32.56.56,0,0,1-.42,0,.52.52,0,0,1-.31-.27.49.49,0,0,1,0-.41Z" transform="translate(-18 -20)"/><path d="M103.93,72.21l-.47,2.56h-.07A13.05,13.05,0,0,0,101.78,73a2.07,2.07,0,0,0-.9-.43.8.8,0,0,0-.59.11.68.68,0,0,0-.32.46.87.87,0,0,0,.35.86l-.06.11a1.77,1.77,0,0,1-.81-.69,1.31,1.31,0,0,1-.15-.87,1.26,1.26,0,0,1,.27-.57,1.11,1.11,0,0,1,.5-.35,1,1,0,0,1,.52-.06,1.77,1.77,0,0,1,.82.39,8.08,8.08,0,0,1,1.39,1.72l.17-.94a3.44,3.44,0,0,0,.06-.45.36.36,0,0,0-.07-.19,1.32,1.32,0,0,0-.26-.23l0-.12,1.21.47Z" transform="translate(-18 -20)"/><path d="M102.23,69l-.63-.09a4.51,4.51,0,0,0-1.11,0,1,1,0,0,0-.44.19.33.33,0,0,0-.08.21.28.28,0,0,0,.11.26,1.38,1.38,0,0,0,.72.2,2.44,2.44,0,0,0,1.25-.11.44.44,0,0,0,.26-.36.77.77,0,0,0-.08-.34Zm2,2h-.1a2.81,2.81,0,0,0-.28-.94,1.9,1.9,0,0,0-.54-.65,2.58,2.58,0,0,0-.78-.38,1.77,1.77,0,0,1,.11.36,1,1,0,0,1,0,.3,1.1,1.1,0,0,1-.44.8,1.36,1.36,0,0,1-1,.24,1.6,1.6,0,0,1-.78-.25,1.31,1.31,0,0,1-.51-.56,1.3,1.3,0,0,1,.15-1.42,1.45,1.45,0,0,1,.68-.49,2.2,2.2,0,0,1,1-.12,2.82,2.82,0,0,1,1.3.45,2.59,2.59,0,0,1,.93,1.08,3.38,3.38,0,0,1,.28,1.59Z" transform="translate(-18 -20)"/><path d="M105.54,67.34h-.14a1.28,1.28,0,0,0-.42-.55.89.89,0,0,0-.52-.18s-.06,0-.08,0a.05.05,0,0,0,0,0,.14.14,0,0,0,0,.06.47.47,0,0,1,0,.24.41.41,0,0,1-.16.33.45.45,0,0,1-.35.13.48.48,0,0,1-.37-.17.48.48,0,0,1-.15-.39.61.61,0,0,1,.22-.48.85.85,0,0,1,.59-.18,1.26,1.26,0,0,1,.82.29,1.65,1.65,0,0,1,.52.85Z" transform="translate(-18 -20)"/><path d="M99.67,62.07l3.58-.36a2.37,2.37,0,0,0,.51-.09.31.31,0,0,0,.17-.17.65.65,0,0,0,0-.36V61l.12,0,.24,2.32h-.12l0-.12a.77.77,0,0,0-.1-.39.34.34,0,0,0-.19-.15,1.88,1.88,0,0,0-.53,0l-2.27.23a1.17,1.17,0,0,0-.38.07.23.23,0,0,0-.12.12.3.3,0,0,0,0,.19.93.93,0,0,0,.14.39l-.11.07-.9-1.54v-.11Z" transform="translate(-18 -20)"/><path d="M101.77,59.12l.19.11a1.08,1.08,0,0,0,.35.05,1.81,1.81,0,0,0,.46,0,1.48,1.48,0,0,0,.49-.18.58.58,0,0,0,.24-.28.48.48,0,0,0,0-.31.53.53,0,0,0-.25-.35.64.64,0,0,0-.5-.07c-.41.08-.75.43-1,1.06Zm-.79-.51a1,1,0,0,0-.39-.1,1.32,1.32,0,0,0-.44,0,1.07,1.07,0,0,0-.61.31.46.46,0,0,0-.09.4.51.51,0,0,0,.22.33.56.56,0,0,0,.42.08,1,1,0,0,0,.45-.26,2.64,2.64,0,0,0,.44-.78Zm.11-.27a2.84,2.84,0,0,1,.5-.76,1.32,1.32,0,0,1,.63-.3,1.15,1.15,0,0,1,1,.22,1.56,1.56,0,0,1,.57,1,1.39,1.39,0,0,1-.12,1,1,1,0,0,1-1.35.42,1.8,1.8,0,0,1-.61-.58,2.58,2.58,0,0,1-.51.78,1.13,1.13,0,0,1-.55.26,1,1,0,0,1-.83-.22,1.46,1.46,0,0,1-.53-1,1.44,1.44,0,0,1,.1-1,1,1,0,0,1,.64-.47.86.86,0,0,1,.57.08,1.55,1.55,0,0,1,.53.48Z" transform="translate(-18 -20)"/><path d="M101.52,56.46l-.36-1.23-1.67.49,2,.74Zm.09.3L98.3,55.55l-.11-.39,2.72-.79-.12-.39.64-.19.12.39,1-.28.25.86-1,.28.45,1.53-.64.19Z" transform="translate(-18 -20)"/><path d="M99.85,52.35a.74.74,0,0,0,.21.07,1.43,1.43,0,0,0,.35,0,1.8,1.8,0,0,0,.44-.12,1.57,1.57,0,0,0,.45-.26.57.57,0,0,0,.19-.32.54.54,0,0,0,0-.31.51.51,0,0,0-.3-.31.7.7,0,0,0-.51,0,1.58,1.58,0,0,0-.8,1.24ZM99,52a1.33,1.33,0,0,0-.4,0,1.82,1.82,0,0,0-.43.11,1,1,0,0,0-.54.41.45.45,0,0,0,0,.41.47.47,0,0,0,.28.29.55.55,0,0,0,.42,0,.83.83,0,0,0,.39-.34A2.35,2.35,0,0,0,99,52ZM99,51.7a2.24,2.24,0,0,1,.35-.83,1.41,1.41,0,0,1,.56-.42,1.19,1.19,0,0,1,1,0,1.55,1.55,0,0,1,.74.87,1.42,1.42,0,0,1,.07,1.06,1,1,0,0,1-.6.63,1,1,0,0,1-.65,0,1.71,1.71,0,0,1-.7-.46,2.88,2.88,0,0,1-.36.87,1.19,1.19,0,0,1-.49.35,1,1,0,0,1-.86-.06,1.74,1.74,0,0,1-.78-1.85.92.92,0,0,1,.54-.58.83.83,0,0,1,.58,0,1.63,1.63,0,0,1,.61.37Z" transform="translate(-18 -20)"/><path d="M34.87,39.64a4.05,4.05,0,0,0,1.09,3,2.74,2.74,0,0,0,3,.45,2,2,0,0,0-.63-.65,1.16,1.16,0,0,0-.8-.28s.13-.34.3-.76a1.24,1.24,0,0,0,.05-1,3.14,3.14,0,0,0-1,.13c-.25.13-.69.42-.69.42a1.91,1.91,0,0,0-.38-.7,3.28,3.28,0,0,0-1-.62Z" transform="translate(-18 -20)"/><path d="M35.84,46.91a4.05,4.05,0,0,0-1.58-2.78,2.73,2.73,0,0,0-3,.06,2.06,2.06,0,0,0,.74.53,1.16,1.16,0,0,0,.83.14s-.07.36-.17.8a1.29,1.29,0,0,0,.13,1,3.17,3.17,0,0,0,.91-.29c.23-.17.61-.53.61-.53a1.83,1.83,0,0,0,.49.62,3.31,3.31,0,0,0,1,.45Z" transform="translate(-18 -20)"/><path d="M35.45,43.29a.47.47,0,0,1-.46.46.46.46,0,0,1-.45-.46.45.45,0,0,1,.45-.45.46.46,0,0,1,.46.45Z" transform="translate(-18 -20)"/><path d="M97.13,44.5A4.06,4.06,0,0,0,94,45a2.73,2.73,0,0,0-1,2.83,2,2,0,0,0,.75-.51,1.13,1.13,0,0,0,.42-.73l.7.44a1.24,1.24,0,0,0,1,.22,2.84,2.84,0,0,0,0-1c-.08-.28-.28-.76-.28-.76a1.84,1.84,0,0,0,.75-.24,3.2,3.2,0,0,0,.78-.83Z" transform="translate(-18 -20)"/><path d="M89.81,44.15a4.08,4.08,0,0,0,3-1.06,2.73,2.73,0,0,0,.48-3,2.09,2.09,0,0,0-.66.63,1.23,1.23,0,0,0-.28.8l-.76-.32a1.25,1.25,0,0,0-1-.05,3,3,0,0,0,.12.94c.13.26.41.7.41.7a1.82,1.82,0,0,0-.7.37,3,3,0,0,0-.63.95Z" transform="translate(-18 -20)"/><path d="M93.44,44.41a.46.46,0,0,1-.37-.53.45.45,0,0,1,.53-.36A.44.44,0,0,1,94,44a.45.45,0,0,1-.52.37Z" transform="translate(-18 -20)"/><path d="M126,112.61l-7.29-52.74h9.08l3.28,34.92,4.51-34.92h7.83l4.42,34.72,3.43-34.72h9.11L153,112.61H143.9L139.47,78.1l-4.33,34.51Z" transform="translate(-18 -20)"/><path d="M163.38,95.26V77.54q0-18.69,15.41-18.69t15.44,18.69V95a34.12,34.12,0,0,1-.47,5.84,20,20,0,0,1-1.6,5.09,13.67,13.67,0,0,1-2.87,4.08,12.21,12.21,0,0,1-4.41,2.66,19.83,19.83,0,0,1-12.16,0,12.27,12.27,0,0,1-4.39-2.58,13.22,13.22,0,0,1-2.86-4,19.72,19.72,0,0,1-1.61-5A32.9,32.9,0,0,1,163.38,95.26Zm20.18,2.41V74.87q0-7.78-4.77-7.79a4,4,0,0,0-2.43.72,4.11,4.11,0,0,0-1.47,2,12.85,12.85,0,0,0-.66,2.46,18.14,18.14,0,0,0-.19,2.65v22.8q0,7.76,4.75,7.76T183.56,97.67Z" transform="translate(-18 -20)"/><path d="M199.82,112.61V59.87h11.61a28.84,28.84,0,0,1,6.95.75A15.49,15.49,0,0,1,223.64,63a10,10,0,0,1,3.43,4.31,16.33,16.33,0,0,1,1.17,6.49c0,1.09,0,2.07-.12,2.93a17.16,17.16,0,0,1-.54,2.94,11.78,11.78,0,0,1-1.15,2.93,10.55,10.55,0,0,1-2.11,2.51,12.3,12.3,0,0,1-3.26,2.05q4.75,15.06,8.27,25.49H218.28l-6-24.29h-1.76v24.29Zm10.67-30.79h3a3,3,0,0,0,2.11-.82,4.76,4.76,0,0,0,1.28-2.08,16.78,16.78,0,0,0,.56-2.32,12.89,12.89,0,0,0,0-3.92,15.74,15.74,0,0,0-.46-2.22,4.47,4.47,0,0,0-1.12-2A2.56,2.56,0,0,0,214,67.7h-3.54Z" transform="translate(-18 -20)"/><path d="M232,95V77.54q0-18.69,15.29-18.69a17.7,17.7,0,0,1,5.73.86,11.55,11.55,0,0,1,7,6.14,18.14,18.14,0,0,1,1.58,4.83,31,31,0,0,1,.49,5.75V81H251.62V76.1c0-.95,0-1.78-.06-2.47a18.34,18.34,0,0,0-.31-2.38,8,8,0,0,0-.67-2.16,3.79,3.79,0,0,0-1.26-1.42,3.43,3.43,0,0,0-2-.59q-4.62,0-4.62,7.79V97.64q0,7.76,4.62,7.76a3.47,3.47,0,0,0,2.32-.79,4.53,4.53,0,0,0,1.35-2.24,16.71,16.71,0,0,0,.55-2.84,30,30,0,0,0,.15-3.18V90.93h10.43v4.45a37.67,37.67,0,0,1-.5,5.57,21.22,21.22,0,0,1-1.49,5,13.73,13.73,0,0,1-2.68,4.06,11.92,11.92,0,0,1-4.21,2.66,16.21,16.21,0,0,1-5.92,1,17.58,17.58,0,0,1-6.08-1,12.23,12.23,0,0,1-4.36-2.64,13.5,13.5,0,0,1-2.83-4.07,20.09,20.09,0,0,1-1.56-5.08A34.24,34.24,0,0,1,232,95Z" transform="translate(-18 -20)"/><path d="M267.09,112.61V59.87h22V67.2H277.75V81.55h8v7.5h-8v16.23h11.34v7.33Z" transform="translate(-18 -20)"/><path d="M291.08,97.52l10.81-2.08c0,1.07,0,2,.06,2.84a21.66,21.66,0,0,0,.31,2.68,9.87,9.87,0,0,0,.67,2.37,4.33,4.33,0,0,0,1.21,1.56,2.79,2.79,0,0,0,1.83.63q3.16,0,3.16-4,0-5.53-6.24-11l-3.31-2.81c-1.05-.88-1.89-1.61-2.52-2.2s-1.36-1.38-2.21-2.37a15,15,0,0,1-2-2.89,16.38,16.38,0,0,1-1.23-3.35,16.07,16.07,0,0,1-.52-4.16q0-6.42,4.08-10.16T306,58.79a12.89,12.89,0,0,1,9.52,4,13.23,13.23,0,0,1,3.92,9.61l0,.38v.88l-11,1.53c0-.22,0-.56,0-1s.05-.83.05-1.12a13,13,0,0,0-.15-2,11.45,11.45,0,0,0-.48-1.94,3.4,3.4,0,0,0-1-1.54,2.62,2.62,0,0,0-1.7-.57,2.93,2.93,0,0,0-2.64,1.38,5.88,5.88,0,0,0-.88,3.25,9.13,9.13,0,0,0,.51,3.08,8.9,8.9,0,0,0,1.56,2.68,21.12,21.12,0,0,0,1.92,2.06q.87.82,2.34,2c1,.79,1.67,1.37,2.08,1.74a47.14,47.14,0,0,1,3.81,3.74,30.09,30.09,0,0,1,2.93,3.94,17.36,17.36,0,0,1,2.06,4.75,21,21,0,0,1,.69,5.5,11.61,11.61,0,0,1-3.95,9.07,13.94,13.94,0,0,1-9.61,3.53,15,15,0,0,1-6.51-1.35,12.07,12.07,0,0,1-4.58-3.66,17.67,17.67,0,0,1-2.68-5.13A22,22,0,0,1,291.08,97.52Z" transform="translate(-18 -20)"/><path d="M328.76,112.61V67.84H321v-8h26v8h-7.59v44.77Z" transform="translate(-18 -20)"/><path d="M350.56,112.61V59.87h22V67.2H361.22V81.55h8v7.5h-8v16.23h11.34v7.33Z" transform="translate(-18 -20)"/><path d="M376.37,112.61V59.87H388a28.93,28.93,0,0,1,7,.75A15.66,15.66,0,0,1,400.19,63a10,10,0,0,1,3.42,4.31,16.32,16.32,0,0,1,1.18,6.49c0,1.09,0,2.07-.12,2.93a19.36,19.36,0,0,1-.54,2.94A11.79,11.79,0,0,1,403,82.56a10.32,10.32,0,0,1-2.11,2.51,12.24,12.24,0,0,1-3.25,2.05q4.74,15.06,8.26,25.49H394.82l-6-24.29H387v24.29ZM387,81.82h3.05a3,3,0,0,0,2.11-.82,4.74,4.74,0,0,0,1.27-2.08A15.45,15.45,0,0,0,394,76.6a12.87,12.87,0,0,0,.16-2,14.22,14.22,0,0,0-.13-1.93,17.45,17.45,0,0,0-.47-2.22,4.55,4.55,0,0,0-1.11-2,2.56,2.56,0,0,0-1.89-.77H387Z" transform="translate(-18 -20)"/><path d="M126.2,44V24.59h-5.7l-1,6.19h-1.64l.5-7.64h18.28l.34,7.64H135.4l-.84-6.19h-5.77V44h4.28v1.44h-10.8V44Z" transform="translate(-18 -20)"/><path d="M141.79,44V23.14l-2.65-.26v-1.1l4.42-.51h.07l.57.39v7.17l-.07,2.52a10.73,10.73,0,0,1,1.58-1.13,11.61,11.61,0,0,1,2.19-1,7.23,7.23,0,0,1,2.37-.42,5.18,5.18,0,0,1,2.93.71,3.77,3.77,0,0,1,1.46,2.19,14.72,14.72,0,0,1,.43,4V44l2.2.23v1.25h-6.73V44.19l2.11-.23V35.68a12.9,12.9,0,0,0-.26-2.91,2.66,2.66,0,0,0-1-1.59,3.77,3.77,0,0,0-2.19-.52,6.51,6.51,0,0,0-2.57.59,11.28,11.28,0,0,0-2.44,1.4V44l2.23.23v1.25h-6.52V44.19Z" transform="translate(-18 -20)"/><path d="M159.67,32.78a7.3,7.3,0,0,1,2.75-2.94,7.48,7.48,0,0,1,3.94-1.06,5.84,5.84,0,0,1,4.16,1.39,5.54,5.54,0,0,1,1.59,4v.44a8.24,8.24,0,0,1-.17,2H161.27a3.66,3.66,0,0,0,0,.37,9.22,9.22,0,0,0,.79,3.76A5.21,5.21,0,0,0,164,43a5,5,0,0,0,2.68.75,7.66,7.66,0,0,0,2.56-.46,6.41,6.41,0,0,0,2.05-1.07l.48,1.1a6.65,6.65,0,0,1-2.53,1.53,9.52,9.52,0,0,1-3.34.61A7.09,7.09,0,0,1,162,44.39a6.5,6.5,0,0,1-2.46-2.93,10.8,10.8,0,0,1-.83-4.36A9.18,9.18,0,0,1,159.67,32.78Zm9.76,2.4c0-.4.07-.78.07-1.15a3.9,3.9,0,0,0-.93-2.69,3.63,3.63,0,0,0-2.82-1q-4.11,0-4.45,4.85Z" transform="translate(-18 -20)"/><path d="M184.58,28.43a10,10,0,0,1,3.84-3.91,10.74,10.74,0,0,1,5.44-1.39,17.59,17.59,0,0,1,2.94.24c.95.16,1.92.36,2.9.59l.49.12-.25,4.77h-1.55l-.65-3.38a3.84,3.84,0,0,0-1.61-.64,13.78,13.78,0,0,0-2.87-.25,6.57,6.57,0,0,0-3.72,1.09A7.3,7.3,0,0,0,187,28.86a12.19,12.19,0,0,0-.94,5,14.9,14.9,0,0,0,.82,5,8.23,8.23,0,0,0,2.5,3.7A6.27,6.27,0,0,0,193.46,44a10.06,10.06,0,0,0,2.66-.28,5.12,5.12,0,0,0,1.64-.8l1.2-2.75,1.46.22-.73,3.89a3.42,3.42,0,0,0-.79.1l-1,.3a16.1,16.1,0,0,1-2,.55,12.24,12.24,0,0,1-2.47.2,10.48,10.48,0,0,1-5.52-1.4,9,9,0,0,1-3.5-3.95,13.91,13.91,0,0,1-1.2-6A11.53,11.53,0,0,1,184.58,28.43Z" transform="translate(-18 -20)"/><path d="M205.49,43.91V30.77l-2.36-.52V28.9l4.12-.47h.07l.59.47v15l2.62.22v1.29h-7.68V44.15Zm-.11-21.68a1.55,1.55,0,0,1,1.3-.6h0a1.41,1.41,0,0,1,1.14.52,1.92,1.92,0,0,1,.41,1.21,2.13,2.13,0,0,1-.46,1.42,1.64,1.64,0,0,1-1.34.56h0a1.35,1.35,0,0,1-1.1-.49,1.85,1.85,0,0,1-.41-1.21A2.19,2.19,0,0,1,205.38,22.23Z" transform="translate(-18 -20)"/><path d="M212.36,30.57V29.38l1-.26a3.15,3.15,0,0,0,.72-.24,1.21,1.21,0,0,0,.39-.39,2.51,2.51,0,0,0,.27-.61,18.38,18.38,0,0,0,.5-1.84c.22-.9.35-1.51.41-1.84h1.39v4.6h5.32v1.77h-5.32V40a14.7,14.7,0,0,0,.13,2.41,1.18,1.18,0,0,0,.48.89,2.7,2.7,0,0,0,1.25.2h0a9.57,9.57,0,0,0,1.92-.23,9.23,9.23,0,0,0,1.64-.49h0l.38,1.1a5.67,5.67,0,0,1-1.33.7,13.33,13.33,0,0,1-1.91.6,8,8,0,0,1-1.81.24h0a3.38,3.38,0,0,1-2.37-.73,3.33,3.33,0,0,1-.81-2.55V30.57Z" transform="translate(-18 -20)"/><path d="M226.6,50.29a2.2,2.2,0,0,0,.63.13,7,7,0,0,0,.9.06,4,4,0,0,0,1.7-.37,4.69,4.69,0,0,0,1.58-1.47,13.7,13.7,0,0,0,1.59-3.2h-1.31l-5.73-15L224.54,30V28.8h6.62V30l-2.42.35,3.15,9.18,1.57,4.88L235,39.53l2.81-9.15L235.65,30V28.8h5.78V30l-1.57.35Q237,38.92,236,41.93t-1.38,3.84a33,33,0,0,1-1.87,4A6.24,6.24,0,0,1,230.86,52a4.88,4.88,0,0,1-2.79.75,6.48,6.48,0,0,1-.85-.07,2.76,2.76,0,0,1-.62-.14Z" transform="translate(-18 -20)"/><path d="M262,29.23a5,5,0,0,1,2,2.31,9,9,0,0,1,.68,3.64,12,12,0,0,1-1.07,5,9.93,9.93,0,0,1-3,3.85,6.75,6.75,0,0,1-4.25,1.47,6,6,0,0,1-3.17-.79,5.07,5.07,0,0,1-2-2.3,8.89,8.89,0,0,1-.68-3.64,12,12,0,0,1,1.07-5,9.94,9.94,0,0,1,3-3.84,6.75,6.75,0,0,1,4.25-1.47A5.93,5.93,0,0,1,262,29.23Zm-.66,2.05a3.28,3.28,0,0,0-2.89-1.41,4,4,0,0,0-3,1.33,8.52,8.52,0,0,0-1.92,3.36,13.09,13.09,0,0,0-.66,4.08,6.74,6.74,0,0,0,1,4,3.35,3.35,0,0,0,2.9,1.4,4,4,0,0,0,3-1.34,8.77,8.77,0,0,0,1.92-3.36,13,13,0,0,0,.66-4A7,7,0,0,0,261.35,31.28Z" transform="translate(-18 -20)"/><path d="M268.26,30.13l.19-.89,2.14-.71.22-1.43A7.93,7.93,0,0,1,272,24a7.31,7.31,0,0,1,2.13-2.22,4.56,4.56,0,0,1,2.57-.83,9.46,9.46,0,0,1,1.24.08,4,4,0,0,1,1.08.3l-.66,2a4.73,4.73,0,0,0-.9-.45,3.45,3.45,0,0,0-1.18-.18,2.61,2.61,0,0,0-2.16,1.13A6.24,6.24,0,0,0,273,26.89l-.21,1.55h3.88l-.19,1.69h-3.89l-2.1,16.39a9.59,9.59,0,0,1-1.69,4.71A4.1,4.1,0,0,1,265.39,53,12.44,12.44,0,0,1,264,52.9a6.38,6.38,0,0,1-1-.14l.59-2a7.63,7.63,0,0,0,1,.3,5.85,5.85,0,0,0,1.33.19,1.57,1.57,0,0,0,1.45-1,10.15,10.15,0,0,0,.75-3l2.14-17.16Z" transform="translate(-18 -20)"/></svg>